<svg viewBox="0 0 128 128" xmlns="http://www.w3.org/2000/svg"><path fill="#2396ED" d="M124.8 52.54c-3.64-2.36-7.93-3.5-12.37-3.5-1.47 0-2.94.1-4.38.3-.42-4.42-3.1-8.26-6.42-10.9l-1.29-1.03-.97 1.32c-2.05 2.82-2.74 6.3-2.1 9.54-4.68.47-9.1 2.4-12.6 5.6l-1.26 1.14 1.03 1.37c2.15 2.87 5.36 4.95 8.86 5.74-1.28 1.64-2.04 3.55-2.2 5.54l-.07 1.52 1.5.24c3.6.57 7.26-.16 10.4-2.02 2.13 4.33 6.53 7.14 11.4 7.14h.02l1.45-.02-.58-1.34c-1.2-2.8-1.17-5.98.08-8.77 3.68-.58 6.98-2.45 9.4-5.34l1.12-1.32-1.53-.78z"/><path fill="#2396ED" d="M23.3 55.48H12.45v10.9H23.3v-10.9zm-10.86-9.25H1.6v10.9h10.84v-10.9zm10.86 0H12.45v10.9H23.3v-10.9zm10.85 0H23.3v10.9h10.85v-10.9zm10.86 0H34.15v10.9H45v-10.9zM23.3 37H12.45v10.9H23.3V37zm10.85 0H23.3v10.9h10.85V37zm10.86 0H34.15v10.9H45V37z"/></svg>
