<svg viewBox="0 0 128 128" xmlns="http://www.w3.org/2000/svg"><path fill="#FF2D20" d="M27.38 31.55c-2.03-2.03-5.34-2.03-7.37 0l-2.78 2.78c-2.03 2.03-2.03 5.34 0 7.37l21.83 21.83 7.37-7.37L27.38 31.55zM97.99 31.55c2.03-2.03 5.34-2.03 7.37 0l2.78 2.78c2.03 2.03 2.03 5.34 0 7.37l-21.83 21.83-7.37-7.37 18.05-24.61z"/><path fill="#FF2D20" d="M64 11.57L42.17 41.36l7.37 7.37L64 26.31l14.46 22.42 7.37-7.37L64 11.57z"/><path fill="#FF2D20" d="M64 53.06L49.54 75.48l7.37 7.37L64 67.8l7.09 15.05 7.37-7.37L64 53.06z"/></svg>
