<svg viewBox="0 0 128 128" xmlns="http://www.w3.org/2000/svg"><path fill="#00618A" d="M116.95 97.8c-3.65 1-6.93.04-5.4-1-1.58-1-2.48-1.5-2.93-2.5-.64-1.2-.7-2.64-.32-4.1.4-1.45 1.17-2.55 2.1-3.4 1.04-1 2.44-1.6 4.05-1.75 2.4-.2 4.7.6 6.23 2.1z"/><path fill="#E48E00" d="M2.44 95.72c.04-.86.17-1.76.4-2.68.22-.93.58-1.8 1.07-2.66.5-.84 1.16-1.58 2-2.2.84-.63 1.86-1.08 3.07-1.35 2.38-.56 5.1-.38 7.16.35 3.4 1.05 6.9 2.25 10.36 3.6 3.45 1.34 6.83 2.78 9.6 4.07 1.7.86 3.08 1.58 4.08 2.14 1 .56 1.63.97 1.84 1.26.2.3.2.6 0 .9-.2.3-.56.54-1.08.74-.52.2-1.2.32-2.02.38-.83.06-1.77.05-2.8-.02-2.1-.18-4.07-.9-5.83-2.12-1.76-1.22-3.33-2.8-4.67-4.66-1.35-1.87-2.5-3.96-3.4-6.18z"/></svg>
