<svg viewBox="0 0 128 128" xmlns="http://www.w3.org/2000/svg"><path fill="#777BB4" d="M64 33.74c-25.17 0-45.56 10.77-45.56 24.06 0 13.3 20.39 24.06 45.56 24.06 25.17 0 45.56-10.76 45.56-24.06 0-13.29-20.39-24.06-45.56-24.06z"/><path fill="#fff" d="M32.67 56.8c-1.36 0-2.47-.11-3.33-.31-.86-.21-1.52-.63-1.98-1.27-.46-.64-.71-1.53-.74-2.68l-.1-4.18c-.03-1.15.16-2.04.56-2.68.4-.64 1-1.06 1.8-1.26.8-.2 1.91-.31 3.33-.31h8.35c1.42 0 2.53.11 3.33.31.8.2 1.41.62 1.82 1.26.41.64.61 1.53.58 2.68l-.1 4.18c-.03 1.15-.28 2.04-.74 2.68-.46.64-1.12 1.06-1.98 1.27-.86.2-1.97.31-3.33.31h-8.35zm1.06-2.24h6.23c.66 0 1.18-.05 1.56-.16.38-.11.66-.32.84-.64.18-.32.29-.78.31-1.38l.06-2.66c.02-.6-.07-1.06-.27-1.38-.2-.32-.49-.53-.87-.64-.38-.11-.9-.16-1.56-.16h-6.23c-.66 0-1.18.05-1.56.16-.38.11-.67.32-.87.64-.2.32-.29.78-.27 1.38l.06 2.66c.02.6.13 1.06.31 1.38.18.32.46.53.84.64.38.11.9.16 1.56.16z"/><path fill="#fff" d="M51.2 56.49c-.8 0-1.41-.2-1.82-.6-.41-.4-.61-.98-.58-1.76l.39-15.76c.03-.78.26-1.36.68-1.76.42-.4 1.04-.6 1.84-.6h10.08c1.42 0 2.53.11 3.33.31.8.2 1.41.62 1.82 1.26.41.64.61 1.53.58 2.68l-.09 3.71c-.03 1.15-.28 2.04-.74 2.68-.46.64-1.12 1.06-1.98 1.27-.86.2-1.97.31-3.33.31h-7.9l-.17 6.9c-.03.78-.26 1.36-.68 1.76-.42.4-1.04.6-1.84.6H51.2zm2.38-12.48h7.5c.66 0 1.18-.05 1.56-.16.38-.11.66-.32.84-.64.18-.32.29-.78.31-1.38l.05-2.18c.02-.6-.07-1.06-.27-1.38-.2-.32-.49-.53-.87-.64-.38-.11-.9-.16-1.56-.16h-7.5l-.06 6.54z"/></svg>
